<svg version="1.1" xmlns="http://www.w3.org/2000/svg" xmlns:xlink="http://www.w3.org/1999/xlink" width="1220" height="743"><defs/><g><g transform="translate(-118,-414) scale(1,1)"><rect fill="#C0C0C0" stroke="none" x="823" y="711" width="128" height="152" opacity="0.2"/></g><g transform="translate(-118,-414) scale(1,1)"><rect fill="#ffffff" stroke="none" x="816" y="704" width="128" height="152"/></g><g transform="translate(-118,-414) scale(1,1)"><path fill="none" stroke="#000000" d="M 816 704 L 944 704 L 944 856 L 816 856 L 816 704 Z Z" stroke-miterlimit="10"/></g><g transform="translate(-118,-414) scale(1,1)"><path fill="none" stroke="#000000" d="M 816 729 L 944 729" stroke-miterlimit="10"/></g><g transform="translate(-118,-414) scale(1,1)"><path fill="none" stroke="#000000" d="M 816 812 L 944 812" stroke-miterlimit="10"/></g><g transform="translate(-118,-414) scale(1,1)"><g><path fill="none" stroke="none"/><text fill="#000000" stroke="none" font-family="Arial" font-size="13px" font-style="normal" font-weight="bold" text-decoration="none" x="862.064697265625" y="721.53857421875">FOTO</text></g></g><g transform="translate(-118,-414) scale(1,1)"><g><path fill="none" stroke="none"/><text fill="#000000" stroke="none" font-family="Arial" font-size="13px" font-style="normal" font-weight="normal" text-decoration="none" x="821" y="744.7099609375">+privata</text></g></g><g transform="translate(-118,-414) scale(1,1)"><g><path fill="none" stroke="none"/><text fill="#000000" stroke="none" font-family="Arial" font-size="13px" font-style="normal" font-weight="normal" text-decoration="none" x="821" y="759.7099609375">+codFoto</text></g></g><g transform="translate(-118,-414) scale(1,1)"><g><path fill="none" stroke="none"/><text fill="#000000" stroke="none" font-family="Arial" font-size="13px" font-style="normal" font-weight="normal" text-decoration="none" x="821" y="774.7099609375">+rimossa</text></g></g><g transform="translate(-118,-414) scale(1,1)"><g><path fill="none" stroke="none"/><text fill="#000000" stroke="none" font-family="Arial" font-size="13px" font-style="normal" font-weight="normal" text-decoration="none" x="821" y="789.7099609375">+dataScatto</text></g></g><g transform="translate(-118,-414) scale(1,1)"><g><path fill="none" stroke="none"/><text fill="#000000" stroke="none" font-family="Arial" font-size="13px" font-style="normal" font-weight="normal" text-decoration="none" x="821" y="803.75146484375">+owner</text></g></g><g transform="translate(-118,-414) scale(1,1)"><rect fill="#C0C0C0" stroke="none" x="431" y="815" width="161.05810546875" height="104" opacity="0.2"/></g><g transform="translate(-118,-414) scale(1,1)"><rect fill="#ffffff" stroke="none" x="424" y="808" width="161.05810546875" height="104"/></g><g transform="translate(-118,-414) scale(1,1)"><path fill="none" stroke="#000000" d="M 424 808 L 585.05810546875 808 L 585.05810546875 912 L 424 912 L 424 808 Z Z" stroke-miterlimit="10"/></g><g transform="translate(-118,-414) scale(1,1)"><path fill="none" stroke="#000000" d="M 424 833 L 585.05810546875 833" stroke-miterlimit="10"/></g><g transform="translate(-118,-414) scale(1,1)"><path fill="none" stroke="#000000" d="M 424 843 L 585.05810546875 843" stroke-miterlimit="10"/></g><g transform="translate(-118,-414) scale(1,1)"><g><path fill="none" stroke="none"/><text fill="#000000" stroke="none" font-family="Arial" font-size="13px" font-style="normal" font-weight="bold" text-decoration="none" x="429.05224609375" y="825.53857421875">GALLERIA PERSONALE</text></g></g><g transform="translate(-118,-414) scale(1,1)"><rect fill="#C0C0C0" stroke="none" x="815" y="975" width="136" height="136" opacity="0.2"/></g><g transform="translate(-118,-414) scale(1,1)"><rect fill="#ffffff" stroke="none" x="808" y="968" width="136" height="136"/></g><g transform="translate(-118,-414) scale(1,1)"><path fill="none" stroke="#000000" d="M 808 968 L 944 968 L 944 1104 L 808 1104 L 808 968 Z Z" stroke-miterlimit="10"/></g><g transform="translate(-118,-414) scale(1,1)"><path fill="none" stroke="#000000" d="M 808 993 L 944 993" stroke-miterlimit="10"/></g><g transform="translate(-118,-414) scale(1,1)"><path fill="none" stroke="#000000" d="M 808 1031 L 944 1031" stroke-miterlimit="10"/></g><g transform="translate(-118,-414) scale(1,1)"><g><path fill="none" stroke="none"/><text fill="#000000" stroke="none" font-family="Arial" font-size="13px" font-style="normal" font-weight="bold" text-decoration="none" x="834.464111328125" y="985.53857421875">DISPOSITIVO</text></g></g><g transform="translate(-118,-414) scale(1,1)"><g><path fill="none" stroke="none"/><text fill="#000000" stroke="none" font-family="Arial" font-size="13px" font-style="normal" font-weight="normal" text-decoration="none" x="813" y="1007.75146484375">+nome</text></g></g><g transform="translate(-118,-414) scale(1,1)"><g><path fill="none" stroke="none"/><text fill="#000000" stroke="none" font-family="Arial" font-size="13px" font-style="normal" font-weight="normal" text-decoration="none" x="813" y="1022.75146484375">+owner</text></g></g><g transform="translate(-118,-414) scale(1,1)"><rect fill="#C0C0C0" stroke="none" x="1199" y="719" width="136" height="136" opacity="0.2"/></g><g transform="translate(-118,-414) scale(1,1)"><rect fill="#ffffff" stroke="none" x="1192" y="712" width="136" height="136"/></g><g transform="translate(-118,-414) scale(1,1)"><path fill="none" stroke="#000000" d="M 1192 712 L 1328 712 L 1328 848 L 1192 848 L 1192 712 Z Z" stroke-miterlimit="10"/></g><g transform="translate(-118,-414) scale(1,1)"><path fill="none" stroke="#000000" d="M 1192 737 L 1328 737" stroke-miterlimit="10"/></g><g transform="translate(-118,-414) scale(1,1)"><path fill="none" stroke="#000000" d="M 1192 805 L 1328 805" stroke-miterlimit="10"/></g><g transform="translate(-118,-414) scale(1,1)"><g><path fill="none" stroke="none"/><text fill="#000000" stroke="none" font-family="Arial" font-size="13px" font-style="normal" font-weight="bold" text-decoration="none" x="1234" y="729.471923828125">UTENTE</text></g></g><g transform="translate(-118,-414) scale(1,1)"><g><path fill="none" stroke="none"/><text fill="#000000" stroke="none" font-family="Arial" font-size="13px" font-style="normal" font-weight="normal" text-decoration="none" x="1197" y="751.75146484375">+username</text></g></g><g transform="translate(-118,-414) scale(1,1)"><g><path fill="none" stroke="none"/><text fill="#000000" stroke="none" font-family="Arial" font-size="13px" font-style="normal" font-weight="normal" text-decoration="none" x="1197" y="767.7099609375">+password</text></g></g><g transform="translate(-118,-414) scale(1,1)"><g><path fill="none" stroke="none"/><text fill="#000000" stroke="none" font-family="Arial" font-size="13px" font-style="normal" font-weight="normal" text-decoration="none" x="1197" y="782.7099609375">+dataReg</text></g></g><g transform="translate(-118,-414) scale(1,1)"><g><path fill="none" stroke="none"/><text fill="#000000" stroke="none" font-family="Arial" font-size="13px" font-style="normal" font-weight="normal" text-decoration="none" x="1197" y="797.7099609375">+email</text></g></g><g transform="translate(-118,-414) scale(1,1)"><rect fill="#C0C0C0" stroke="none" x="1047" y="439" width="128" height="120" opacity="0.2"/></g><g transform="translate(-118,-414) scale(1,1)"><rect fill="#ffffff" stroke="none" x="1040" y="432" width="128" height="120"/></g><g transform="translate(-118,-414) scale(1,1)"><path fill="none" stroke="#000000" d="M 1040 432 L 1168 432 L 1168 552 L 1040 552 L 1040 432 Z Z" stroke-miterlimit="10"/></g><g transform="translate(-118,-414) scale(1,1)"><path fill="none" stroke="#000000" d="M 1040 457 L 1168 457" stroke-miterlimit="10"/></g><g transform="translate(-118,-414) scale(1,1)"><path fill="none" stroke="#000000" d="M 1040 495 L 1168 495" stroke-miterlimit="10"/></g><g transform="translate(-118,-414) scale(1,1)"><g><path fill="none" stroke="none"/><text fill="#000000" stroke="none" font-family="Arial" font-size="13px" font-style="normal" font-weight="bold" text-decoration="none" x="1080.167724609375" y="449.53857421875">LUOGO</text></g></g><g transform="translate(-118,-414) scale(1,1)"><g><path fill="none" stroke="none"/><text fill="#000000" stroke="none" font-family="Arial" font-size="13px" font-style="normal" font-weight="normal" text-decoration="none" x="1045" y="472.7099609375">+coordinate</text></g></g><g transform="translate(-118,-414) scale(1,1)"><g><path fill="none" stroke="none"/><text fill="#000000" stroke="none" font-family="Arial" font-size="13px" font-style="normal" font-weight="normal" text-decoration="none" x="1045" y="487.471923828125">+nomeLuogo</text></g></g><g transform="translate(-118,-414) scale(1,1)"><rect fill="#C0C0C0" stroke="none" x="783" y="431" width="128" height="104" opacity="0.2"/></g><g transform="translate(-118,-414) scale(1,1)"><rect fill="#ffffff" stroke="none" x="776" y="424" width="128" height="104"/></g><g transform="translate(-118,-414) scale(1,1)"><path fill="none" stroke="#000000" d="M 776 424 L 904 424 L 904 528 L 776 528 L 776 424 Z Z" stroke-miterlimit="10"/></g><g transform="translate(-118,-414) scale(1,1)"><path fill="none" stroke="#000000" d="M 776 449 L 904 449" stroke-miterlimit="10"/></g><g transform="translate(-118,-414) scale(1,1)"><path fill="none" stroke="#000000" d="M 776 487 L 904 487" stroke-miterlimit="10"/></g><g transform="translate(-118,-414) scale(1,1)"><g><path fill="none" stroke="none"/><text fill="#000000" stroke="none" font-family="Arial" font-size="13px" font-style="normal" font-weight="bold" text-decoration="none" x="783.540771484375" y="441.53857421875">SOGGETTO FOTO</text></g></g><g transform="translate(-118,-414) scale(1,1)"><g><path fill="none" stroke="none"/><text fill="#000000" stroke="none" font-family="Arial" font-size="13px" font-style="normal" font-weight="normal" text-decoration="none" x="781" y="463.75146484375">+nome</text></g></g><g transform="translate(-118,-414) scale(1,1)"><g><path fill="none" stroke="none"/><text fill="#000000" stroke="none" font-family="Arial" font-size="13px" font-style="normal" font-weight="normal" text-decoration="none" x="781" y="479.7099609375">+categoria</text></g></g><g transform="translate(-118,-414) scale(1,1)"><path fill="none" stroke="#000000" d="M 945 780 L 1191 780" stroke-miterlimit="10"/></g><g transform="translate(-118,-414) scale(1,1)"><g><path fill="none" stroke="none"/><text fill="#000000" stroke="none" font-family="Arial" font-size="13px" font-style="normal" font-weight="normal" text-decoration="none" x="1041.5" y="769.2021484375">+scattare</text></g></g><g transform="translate(-118,-414) scale(1,1)"><g><path fill="none" stroke="none"/><text fill="#000000" stroke="none" font-family="Arial" font-size="13px" font-style="normal" font-weight="normal" text-decoration="none" x="963.726806640625" y="796.471923828125">*</text></g></g><g transform="translate(-118,-414) scale(1,1)"><g><path fill="none" stroke="none"/><text fill="#000000" stroke="none" font-family="Arial" font-size="13px" font-style="normal" font-weight="normal" text-decoration="none" x="1165.641357421875" y="796.471923828125">1</text></g></g><g transform="translate(-118,-414) scale(1,1)"><path fill="none" stroke="#000000" d="M 879 856 L 879 968" stroke-miterlimit="10"/></g><g transform="translate(-118,-414) scale(1,1)"><g><path fill="none" stroke="none"/><text fill="#000000" stroke="none" font-family="Arial" font-size="13px" font-style="normal" font-weight="normal" text-decoration="none" x="880.5" y="921.7099609375">+generazione</text></g></g><g transform="translate(-118,-414) scale(1,1)"><g><path fill="none" stroke="none"/><text fill="#000000" stroke="none" font-family="Arial" font-size="13px" font-style="normal" font-weight="normal" text-decoration="none" x="856.5" y="881.471923828125">1..*</text></g></g><g transform="translate(-118,-414) scale(1,1)"><g><path fill="none" stroke="none"/><text fill="#000000" stroke="none" font-family="Arial" font-size="13px" font-style="normal" font-weight="normal" text-decoration="none" x="862.5" y="950.471923828125">1</text></g></g><g transform="translate(-118,-414) scale(1,1)"><path fill="none" stroke="#000000" d="M 1260 848 L 1260 1048 L 944 1048" stroke-miterlimit="10"/></g><g transform="translate(-118,-414) scale(1,1)"><g><path fill="none" stroke="none"/><text fill="#000000" stroke="none" font-family="Arial" font-size="13px" font-style="normal" font-weight="normal" text-decoration="none" x="1228.16455078125" y="1066.75146484375">+possesso</text></g></g><g transform="translate(-118,-414) scale(1,1)"><g><path fill="none" stroke="none"/><text fill="#000000" stroke="none" font-family="Arial" font-size="13px" font-style="normal" font-weight="normal" text-decoration="none" x="1243.641357421875" y="873.471923828125">1</text></g></g><g transform="translate(-118,-414) scale(1,1)"><g><path fill="none" stroke="none"/><text fill="#000000" stroke="none" font-family="Arial" font-size="13px" font-style="normal" font-weight="normal" text-decoration="none" x="962.726806640625" y="1039.471923828125">*</text></g></g><g transform="translate(-118,-414) scale(1,1)"><path fill="none" stroke="#000000" d="M 944 718 L 1152 718 L 1152 552" stroke-miterlimit="10"/></g><g transform="translate(-118,-414) scale(1,1)"><g><path fill="none" stroke="none"/><text fill="#000000" stroke="none" font-family="Arial" font-size="13px" font-style="normal" font-weight="normal" text-decoration="none" x="1038.5" y="714.471923828125">+presenzaLuogo</text></g></g><g transform="translate(-118,-414) scale(1,1)"><g><path fill="none" stroke="none"/><text fill="#000000" stroke="none" font-family="Arial" font-size="13px" font-style="normal" font-weight="normal" text-decoration="none" x="962.58544921875" y="734.471923828125">*</text></g></g><g transform="translate(-118,-414) scale(1,1)"><g><path fill="none" stroke="none"/><text fill="#000000" stroke="none" font-family="Arial" font-size="13px" font-style="normal" font-weight="normal" text-decoration="none" x="1153.5" y="577.53857421875">0..1</text></g></g><g transform="translate(-118,-414) scale(1,1)"><path fill="none" stroke="#000000" d="M 847 528 L 847 704" stroke-miterlimit="10"/></g><g transform="translate(-118,-414) scale(1,1)"><g><path fill="none" stroke="none"/><text fill="#000000" stroke="none" font-family="Arial" font-size="13px" font-style="normal" font-weight="normal" text-decoration="none" x="846.5" y="586.2021484375">+contenuto</text></g></g><g transform="translate(-118,-414) scale(1,1)"><g><path fill="none" stroke="none"/><text fill="#000000" stroke="none" font-family="Arial" font-size="13px" font-style="normal" font-weight="normal" text-decoration="none" x="831.220458984375" y="553.471923828125">*</text></g></g><g transform="translate(-118,-414) scale(1,1)"><g><path fill="none" stroke="none"/><text fill="#000000" stroke="none" font-family="Arial" font-size="13px" font-style="normal" font-weight="normal" text-decoration="none" x="831.220458984375" y="686.471923828125">*</text></g></g><g transform="translate(-118,-414) scale(1,1)"><rect fill="#C0C0C0" stroke="none" x="431" y="607" width="155.9990234375" height="104" opacity="0.2"/></g><g transform="translate(-118,-414) scale(1,1)"><rect fill="#ffffff" stroke="none" x="424" y="600" width="155.9990234375" height="104"/></g><g transform="translate(-118,-414) scale(1,1)"><path fill="none" stroke="#000000" d="M 424 600 L 579.9990234375 600 L 579.9990234375 704 L 424 704 L 424 600 Z Z" stroke-miterlimit="10"/></g><g transform="translate(-118,-414) scale(1,1)"><path fill="none" stroke="#000000" d="M 424 625 L 579.9990234375 625" stroke-miterlimit="10"/></g><g transform="translate(-118,-414) scale(1,1)"><path fill="none" stroke="#000000" d="M 424 648 L 579.9990234375 648" stroke-miterlimit="10"/></g><g transform="translate(-118,-414) scale(1,1)"><g><path fill="none" stroke="none"/><text fill="#000000" stroke="none" font-family="Arial" font-size="13px" font-style="normal" font-weight="bold" text-decoration="none" x="430.858154296875" y="617.53857421875">GALLERIA CONDIVISA</text></g></g><g transform="translate(-118,-414) scale(1,1)"><g><path fill="none" stroke="none"/><text fill="#000000" stroke="none" font-family="Arial" font-size="13px" font-style="normal" font-weight="normal" text-decoration="none" x="429" y="639.75146484375">+nome</text></g></g><g transform="translate(-118,-414) scale(1,1)"><path fill="none" stroke="#000000" d="M 585 860 L 744 860 L 744 1128 L 1192 1128 L 1192 848" stroke-miterlimit="10"/></g><g transform="translate(-118,-414) scale(1,1)"><g><path fill="none" stroke="none"/><text fill="#000000" stroke="none" font-family="Arial" font-size="13px" font-style="normal" font-weight="normal" text-decoration="none" x="902.5" y="1145.7861328125">+proprietà</text></g></g><g transform="translate(-118,-414) scale(1,1)"><g><path fill="none" stroke="none"/><text fill="#000000" stroke="none" font-family="Arial" font-size="13px" font-style="normal" font-weight="normal" text-decoration="none" x="602.5" y="876.471923828125">1</text></g></g><g transform="translate(-118,-414) scale(1,1)"><g><path fill="none" stroke="none"/><text fill="#000000" stroke="none" font-family="Arial" font-size="13px" font-style="normal" font-weight="normal" text-decoration="none" x="1200.5" y="873.471923828125">1</text></g></g><g transform="translate(-118,-414) scale(1,1)"><rect fill="#C0C0C0" stroke="none" x="135" y="687" width="174.140625" height="136" opacity="0.2"/></g><g transform="translate(-118,-414) scale(1,1)"><rect fill="#ffffff" stroke="none" x="128" y="680" width="174.140625" height="136"/></g><g transform="translate(-118,-414) scale(1,1)"><path fill="none" stroke="#000000" d="M 128 680 L 302.140625 680 L 302.140625 816 L 128 816 L 128 680 Z Z" stroke-miterlimit="10"/></g><g transform="translate(-118,-414) scale(1,1)"><path fill="none" stroke="#000000" d="M 128 705 L 302.140625 705" stroke-miterlimit="10"/></g><g transform="translate(-118,-414) scale(1,1)"><path fill="none" stroke="#000000" d="M 128 715 L 302.140625 715" stroke-miterlimit="10"/></g><g transform="translate(-118,-414) scale(1,1)"><g><path fill="none" stroke="none"/><text fill="#000000" stroke="none" font-family="Arial" font-size="13px" font-style="normal" font-weight="bold" text-decoration="none" x="132.5" y="697.53857421875">GALLERIA FOTOGRAFICA</text></g></g><g transform="translate(-118,-414) scale(1,1)"><path fill="none" stroke="#000000" d="M 423 829 L 303 782" stroke-miterlimit="10"/></g><g transform="translate(-118,-414) scale(1,1)"><path fill="#FFFFFF" stroke="none" d="M 324.99586136860916 781.5732885601166 L 303 782 L 318.8551532845342 797.2516921790312"/></g><g transform="translate(-118,-414) scale(1,1)"><path fill="none" stroke="#000000" d="M 324.99586136860916 781.5732885601166 L 303 782 L 318.8551532845342 797.2516921790312 L 324.99586136860916 781.5732885601166" stroke-miterlimit="10"/></g><g transform="translate(-118,-414) scale(1,1)"><path fill="none" stroke="#000000" d="M 423 678 L 303 718" stroke-miterlimit="10"/></g><g transform="translate(-118,-414) scale(1,1)"><path fill="#FFFFFF" stroke="none" d="M 319.61998700990557 703.5855616900772 L 303 718 L 324.9446525938781 719.5595584419949"/></g><g transform="translate(-118,-414) scale(1,1)"><path fill="none" stroke="#000000" d="M 319.61998700990557 703.5855616900772 L 303 718 L 324.9446525938781 719.5595584419949 L 319.61998700990557 703.5855616900772" stroke-miterlimit="10"/></g><g transform="translate(-118,-414) scale(1,1)"><path fill="none" stroke="#000000" d="M 1296 712 L 1296 632 L 580 632" stroke-miterlimit="10"/></g><g transform="translate(-118,-414) scale(1,1)"><g><path fill="none" stroke="none"/><text fill="#000000" stroke="none" font-family="Arial" font-size="13px" font-style="normal" font-weight="normal" text-decoration="none" x="950.5" y="625.7099609375">+partecipazione</text></g></g><g transform="translate(-118,-414) scale(1,1)"><g><path fill="none" stroke="none"/><text fill="#000000" stroke="none" font-family="Arial" font-size="13px" font-style="normal" font-weight="normal" text-decoration="none" x="1298.5" y="694.53857421875">2..*</text></g></g><g transform="translate(-118,-414) scale(1,1)"><g><path fill="none" stroke="none"/><text fill="#000000" stroke="none" font-family="Arial" font-size="13px" font-style="normal" font-weight="normal" text-decoration="none" x="598.220458984375" y="623.471923828125">*</text></g></g><g transform="translate(-118,-414) scale(1,1)"><path fill="none" stroke="#000000" d="M 944 808 L 1192 808" stroke-miterlimit="10"/></g><g transform="translate(-118,-414) scale(1,1)"><g><path fill="none" stroke="none"/><text fill="#000000" stroke="none" font-family="Arial" font-size="13px" font-style="normal" font-weight="normal" text-decoration="none" x="1012.5" y="826.471923828125">+presenzaUtente</text></g></g><g transform="translate(-118,-414) scale(1,1)"><g><path fill="none" stroke="none"/><text fill="#000000" stroke="none" font-family="Arial" font-size="13px" font-style="normal" font-weight="normal" text-decoration="none" x="962.220458984375" y="824.471923828125">*</text></g></g><g transform="translate(-118,-414) scale(1,1)"><g><path fill="none" stroke="none"/><text fill="#000000" stroke="none" font-family="Arial" font-size="13px" font-style="normal" font-weight="normal" text-decoration="none" x="1160.5" y="824.53857421875">0..*</text></g></g><g transform="translate(-118,-414) scale(1,1)"><path fill="none" stroke="#000000" d="M 816 758 L 501 758 L 501 704" stroke-miterlimit="10"/></g><g transform="translate(-118,-414) scale(1,1)"><path fill="#FFFFFF" stroke="none" d="M 505.209517756016 714.1626748576241 L 501 704 L 496.790482243984 714.1626748576241 L 501 726"/></g><g transform="translate(-118,-414) scale(1,1)"><path fill="none" stroke="#000000" d="M 505.209517756016 714.1626748576241 L 501 704 L 496.790482243984 714.1626748576241 L 501 726 L 505.209517756016 714.1626748576241" stroke-miterlimit="10"/></g><g transform="translate(-118,-414) scale(1,1)"><g><path fill="none" stroke="none"/><text fill="#000000" stroke="none" font-family="Arial" font-size="13px" font-style="normal" font-weight="normal" text-decoration="none" x="791.220458984375" y="749.471923828125">*</text></g></g><g transform="translate(-118,-414) scale(1,1)"><path fill="none" stroke="#000000" d="M 816 843 L 585 843" stroke-miterlimit="10"/></g><g transform="translate(-118,-414) scale(1,1)"><path fill="#000000" stroke="none" d="M 595.1626748576241 838.790482243984 L 585 843 L 595.1626748576241 847.209517756016 L 607 843"/></g><g transform="translate(-118,-414) scale(1,1)"><path fill="none" stroke="#000000" d="M 595.1626748576241 838.790482243984 L 585 843 L 595.1626748576241 847.209517756016 L 607 843 L 595.1626748576241 838.790482243984" stroke-miterlimit="10"/></g><g transform="translate(-118,-414) scale(1,1)"><g><path fill="none" stroke="none"/><text fill="#000000" stroke="none" font-family="Arial" font-size="13px" font-style="normal" font-weight="normal" text-decoration="none" x="791.220458984375" y="834.471923828125">*</text></g></g></g></svg>